<svg width="22" height="22" viewBox="0 0 22 22" fill="none" xmlns="http://www.w3.org/2000/svg">
<path fill-rule="evenodd" clip-rule="evenodd" d="M2.38814 2.93335C2.00237 2.93335 1.6324 3.0866 1.35962 3.35938C1.08684 3.63216 0.933594 4.00213 0.933594 4.3879V17.4788C0.933594 17.8646 1.08684 18.2345 1.35962 18.5073C1.6324 18.7801 2.00237 18.9334 2.38814 18.9334H15.479C15.8648 18.9334 16.2348 18.7801 16.5076 18.5073C16.7803 18.2345 16.9336 17.8646 16.9336 17.4788V12.3879C16.9336 12.195 16.857 12.01 16.7206 11.8736C16.5842 11.7372 16.3992 11.6606 16.2063 11.6606C16.0134 11.6606 15.8285 11.7372 15.6921 11.8736C15.5557 12.01 15.479 12.195 15.479 12.3879V17.4788H2.38814V4.3879H7.47905C7.67193 4.3879 7.85692 4.31127 7.99331 4.17488C8.1297 4.03849 8.20632 3.85351 8.20632 3.66062C8.20632 3.46774 8.1297 3.28276 7.99331 3.14637C7.85692 3.00998 7.67193 2.93335 7.47905 2.93335H2.38814ZM16.7212 3.14572C16.8565 3.2813 16.9328 3.46476 16.9336 3.65626V8.02426C16.9336 8.21715 16.857 8.40213 16.7206 8.53852C16.5842 8.67491 16.3992 8.75153 16.2063 8.75153C16.0134 8.75153 15.8285 8.67491 15.6921 8.53852C15.5557 8.40213 15.479 8.21715 15.479 8.02426V5.41626L7.99396 12.9028C7.92634 12.9704 7.84606 13.0241 7.75772 13.0607C7.66937 13.0973 7.57468 13.1161 7.47905 13.1161C7.38342 13.1161 7.28873 13.0973 7.20038 13.0607C7.11203 13.0241 7.03176 12.9704 6.96414 12.9028C6.89652 12.8352 6.84288 12.7549 6.80629 12.6666C6.76969 12.5782 6.75086 12.4835 6.75086 12.3879C6.75086 12.2923 6.76969 12.1976 6.80629 12.1092C6.84288 12.0209 6.89652 11.9406 6.96414 11.873L14.4507 4.3879H11.8427C11.6498 4.3879 11.4648 4.31127 11.3284 4.17488C11.192 4.03849 11.1154 3.85351 11.1154 3.66062C11.1154 3.46774 11.192 3.28276 11.3284 3.14637C11.4648 3.00998 11.6498 2.93335 11.8427 2.93335H16.2063C16.3019 2.9331 16.3966 2.95173 16.485 2.98818C16.5733 3.02462 16.6536 3.07816 16.7212 3.14572Z" fill="#333333"/>
</svg>
